# xmcd CD database file
#
# Track frame offsets:
#	150
#	20482
#	41010
#	54637
#	76235
#	94715
#	122682
#	143245
#	167095
#	187560
#	217832
#	234262
#
# Disc length: 3377 seconds
#
# Revision: 0
# Processed by: cddbd v1.4PL0 Copyright (c) Steve Scherf et al.
# Submitted via: CDex 1.40Release
#
DISCID=8f0d2f0c
DTITLE=David Brinson - Slow Down
DYEAR=1900
DGENRE=Blues
TTITLE0=Slow Down
TTITLE1=Hit and Run
TTITLE2=Home Recka
TTITLE3=Trouble Makers
TTITLE4=Dirty Lover
TTITLE5=Last One
TTITLE6=Love Maker
TTITLE7=Take it Easy
TTITLE8=Personal Lover
TTITLE9=Old Feelings
TTITLE10=Don't Say Goodbye
TTITLE11=Got What You Need
EXTD=ID3G: 0
EXTT0=
EXTT1=
EXTT2=
EXTT3=
EXTT4=
EXTT5=
EXTT6=
EXTT7=
EXTT8=
EXTT9=
EXTT10=
EXTT11=
PLAYORDER=
